<svg xmlns="http://www.w3.org/2000/svg" width="100" height="100" viewBox="0 0 24 24" fill="rgb(83, 100, 113)">
    <path
        d="M 14.046 2.242 l -4.148 -0.01 h -0.002 c -4.374 0 -7.8 3.427 -7.8 7.802 c 0 4.098 3.186 7.206 7.465 7.37 v 3.828 c 0 0.108 0.044 0.286 0.12 0.403 c 0.142 0.225 0.384 0.347 0.632 0.347 c 0.138 0 0.277 -0.038 0.402 -0.118 c 0.264 -0.168 6.473 -4.14 8.088 -5.506 c 1.902 -1.61 3.04 -3.97 3.043 -6.312 v -0.017 c -0.006 -4.367 -3.43 -7.787 -7.8 -7.788 Z m 3.787 12.972 c -1.134 0.96 -4.862 3.405 -6.772 4.643 V 16.67 c 0 -0.414 -0.335 -0.75 -0.75 -0.75 h -0.396 c -3.66 0 -6.318 -2.476 -6.318 -5.886 c 0 -3.534 2.768 -6.302 6.3 -6.302 l 4.147 0.01 h 0.002 c 3.532 0 6.3 2.766 6.302 6.296 c -0.003 1.91 -0.942 3.844 -2.514 5.176 Z" />
</svg>
